/* XPM */
static char * run_xpm[] = {
"10 10 2 1",
" 	c None",
".	c #FF0000",
"     .    ",
"     ..   ",
"      ..  ",
"......... ",
"..........",
"......... ",
"      ..  ",
"     ..   ",
"     .    ",
"          "};
